REM MD5 e2e4d643e8b842e64f70128f602800e4
FILE "MeltyLancer - Re-inforce (Japan) (Disc 1).bin" BINARY
  TRACK 01 MODE2/2352
    INDEX 01 00:00:00
  TRACK 02 AUDIO
    INDEX 00 48:49:18
    INDEX 01 48:51:18
  TRACK 03 AUDIO
    INDEX 00 51:02:19
    INDEX 01 51:04:19
REM LEADOUT 57:02:25
